<svg xmlns="http://www.w3.org/2000/svg" viewBox="0 0 100 100">
  <path d="M 85.964 0 C 86.215 0.266 86.215 0.266 86.451 0.616 C 86.53 0.729 86.61 0.844 86.69 0.962 C 87.29 1.966 87.184 3.145 87.078 4.272 C 86.855 5.121 86.521 5.892 86.15 6.687 C 86.096 6.805 86.04 6.924 85.983 7.046 C 85.264 8.593 84.468 10.033 83.487 11.432 C 83.222 11.822 83.005 12.203 82.806 12.631 C 82.929 12.631 83.051 12.631 83.177 12.631 C 83.25 12.467 83.25 12.467 83.324 12.3 C 83.566 11.856 83.827 11.569 84.19 11.217 C 84.38 11.03 84.38 11.03 84.575 10.838 C 84.708 10.709 84.84 10.581 84.978 10.448 C 85.864 9.583 86.716 8.709 87.525 7.772 C 90.395 4.474 90.395 4.474 92.221 3.854 C 93.091 3.92 93.353 4.203 93.951 4.829 C 94.813 7.417 93.784 10.222 92.638 12.54 C 91.818 14.13 90.822 15.53 89.679 16.902 C 90.5 16.215 91.268 15.511 92.004 14.733 C 92.28 14.487 92.28 14.487 92.651 14.487 C 92.712 14.304 92.773 14.12 92.837 13.93 C 93.187 13.632 93.187 13.632 93.625 13.339 C 93.768 13.24 93.911 13.142 94.058 13.04 C 94.561 12.79 94.883 12.772 95.437 12.816 C 96.361 14.03 96.341 15.231 96.179 16.716 C 95.706 18.683 94.353 20.403 93.093 21.94 C 92.8 22.299 92.8 22.299 92.651 22.846 C 92.858 22.839 93.064 22.83 93.278 22.823 C 93.951 22.846 93.951 22.846 94.322 23.217 C 94.642 24.978 93.736 26.412 92.785 27.814 C 92.329 28.409 91.805 28.932 91.264 29.451 C 90.92 29.997 90.968 30.365 90.997 30.996 C 90.964 31.702 90.635 32.263 90.305 32.876 C 90.238 33.007 90.169 33.136 90.099 33.271 C 89.111 35.121 87.722 37.066 85.86 38.111 C 85.709 38.222 85.561 38.333 85.407 38.448 C 85.384 38.641 85.361 38.834 85.339 39.032 C 85.196 39.903 84.872 40.417 84.373 41.13 C 84.29 41.251 84.206 41.373 84.12 41.498 C 83.124 42.919 82.106 43.941 80.578 44.763 C 80.038 45.195 79.785 45.595 79.509 46.214 C 79.004 47.286 78.122 48.034 77.072 48.559 C 76.551 48.941 76.547 49.308 76.423 49.919 C 75.987 51.469 74.615 52.783 73.334 53.679 C 73.088 53.679 72.843 53.679 72.591 53.679 C 72.591 53.801 72.591 53.923 72.591 54.051 C 72.132 54.523 71.611 54.929 71.104 55.35 C 70.959 55.474 70.814 55.599 70.664 55.727 C 67.919 58.015 67.919 58.015 66.24 58.02 C 66.007 57.997 65.774 57.975 65.533 57.95 C 65.471 58.196 65.41 58.441 65.347 58.693 C 65.225 58.693 65.103 58.693 64.975 58.693 C 64.927 58.8 64.88 58.907 64.831 59.018 C 64.277 60.039 63.39 60.892 62.294 61.294 C 61.446 61.525 60.65 61.521 59.774 61.479 C 59.729 61.591 59.683 61.703 59.636 61.818 C 59.214 62.55 58.497 62.849 57.732 63.151 C 56.817 63.328 56.117 63.236 55.306 62.78 C 55.125 62.657 54.945 62.534 54.759 62.409 C 54.706 62.523 54.652 62.638 54.597 62.756 C 54.388 63.151 54.388 63.151 54.017 63.523 C 53.833 63.523 53.649 63.523 53.46 63.523 C 53.862 64.234 54.272 64.936 54.701 65.63 C 55.499 66.96 56.187 68.346 56.89 69.727 C 57.288 70.51 57.694 71.289 58.102 72.067 C 58.195 72.247 58.288 72.427 58.383 72.612 C 59.007 73.751 59.649 74.343 60.785 74.957 C 60.932 75.042 61.08 75.127 61.232 75.215 C 61.532 75.386 61.833 75.559 62.135 75.727 C 62.742 76.069 63.336 76.43 63.93 76.791 C 64.156 76.928 64.383 77.062 64.61 77.198 C 64.727 77.269 64.844 77.339 64.966 77.411 C 65.388 77.663 65.811 77.914 66.235 78.166 C 67.874 79.142 69.496 80.135 71.09 81.181 C 71.911 81.718 72.743 82.228 73.59 82.724 C 81.225 87.234 81.225 87.234 82.249 89.898 C 82.304 90.466 82.304 90.466 82.308 91.093 C 82.31 91.3 82.313 91.507 82.317 91.719 C 82.242 92.371 82.026 92.69 81.692 93.241 C 81.733 93.894 82.096 94.39 82.435 94.936 C 83.04 95.916 83.264 96.527 83.177 97.699 C 83.007 98.315 82.64 98.687 82.1 99.033 C 81.155 99.385 80.09 99.343 79.092 99.37 C 79.092 99.492 79.092 99.616 79.092 99.742 C 78.177 100.047 77.259 100.043 76.306 99.928 C 75.927 99.72 75.927 99.72 75.597 99.463 C 74.702 98.789 73.758 98.965 72.684 99 C 71.638 98.998 71.071 98.694 70.234 98.07 C 69.627 97.704 69.2 97.582 68.517 97.431 C 67.329 97.161 66.546 96.762 65.753 95.806 C 65.292 95.424 65.07 95.399 64.488 95.308 C 62.736 95.003 61.572 94.077 60.528 92.673 C 59.762 91.574 59.018 90.464 58.289 89.34 C 58.161 89.144 58.161 89.144 58.031 88.942 C 57.682 88.405 57.334 87.866 56.986 87.326 C 56.255 86.194 55.511 85.072 54.759 83.954 C 54.637 83.77 54.515 83.586 54.388 83.397 C 54.277 83.41 54.166 83.422 54.052 83.436 C 52.439 83.602 50.83 83.635 49.211 83.64 C 48.996 83.642 48.996 83.642 48.777 83.642 C 46.427 83.642 44.222 83.45 41.944 82.839 C 41.614 82.759 41.614 82.759 41.276 82.677 C 38.314 81.872 35.809 80.274 33.585 78.196 C 33.448 78.07 33.309 77.943 33.166 77.814 C 30.679 75.456 29.062 72.455 27.456 69.467 C 27.386 69.336 27.316 69.205 27.244 69.072 C 25.909 66.561 24.678 63.864 24.195 61.051 C 23.994 60.178 23.706 56.81 23.706 56.587 C 23.717 54.671 23.873 52.792 24.113 50.892 C 24.236 50.892 24.239 46.621 24.113 46.621 C 24.09 46.387 24.067 46.153 24.043 45.913 C 23.805 44.818 23.132 44.206 22.369 43.423 C 21.786 42.8 21.322 42.133 20.857 41.419 C 20.416 40.82 20.071 40.684 19.342 40.56 C 19.038 40.527 19.038 40.527 18.726 40.491 C 18.8 40.675 18.874 40.86 18.951 41.05 C 19.835 43.298 20.437 45.429 20.468 47.863 C 20.471 48.007 20.472 48.152 20.476 48.301 C 20.467 49.3 20.467 49.3 20.156 49.777 C 19.62 50.095 19.145 50.03 18.541 49.963 C 18.101 49.303 18.133 49.056 18.159 48.278 C 18.164 48.052 18.169 47.826 18.175 47.593 C 18.18 47.352 18.187 47.112 18.192 46.865 C 18.222 44.785 18.094 43.018 17.426 41.049 C 17.396 40.905 17.363 40.761 17.332 40.613 C 17.302 40.511 17.271 40.41 17.24 40.305 C 17.122 40.251 17.003 40.198 16.881 40.143 C 16.498 39.934 16.498 39.934 16.345 39.454 C 16.075 38.671 15.679 38.052 15.222 37.368 C 15.14 37.242 15.06 37.116 14.976 36.986 C 14.896 36.865 14.817 36.746 14.735 36.622 C 14.627 36.459 14.627 36.459 14.518 36.293 C 14.201 35.963 13.976 35.9 13.525 35.847 C 13.105 36.055 13.105 36.055 12.701 36.37 C 11.771 37.052 10.945 37.459 9.761 37.426 C 8.094 37.122 6.523 36.149 5.481 34.829 C 4.507 33.376 3.875 32.044 3.868 30.275 C 7.427 30.609 10.416 31.812 12.847 34.442 C 13.159 34.778 13.159 34.778 13.712 34.919 C 13.64 34.76 13.64 34.76 13.567 34.596 C 13.346 34.1 13.128 33.605 12.911 33.108 C 12.832 32.929 12.753 32.752 12.672 32.567 C 12.259 31.616 11.958 30.764 11.819 29.73 C 11.741 29.216 11.741 29.216 11.483 28.789 C 10.657 28.27 9.803 27.984 8.883 27.675 C 6.553 26.618 4.944 24.52 4.031 22.177 C 3.504 20.139 3.65 17.503 4.711 15.663 C 4.8 15.52 4.89 15.378 4.982 15.23 C 5.11 14.923 5.234 14.613 5.353 14.302 C 5.474 14.053 5.597 13.805 5.725 13.558 C 5.908 13.558 6.092 13.558 6.282 13.558 C 6.31 13.782 6.31 13.782 6.338 14.009 C 6.61 15.593 7.151 16.467 8.219 17.651 C 10.065 19.781 10.566 22.047 10.789 24.771 C 10.857 25.556 10.945 26.212 11.297 26.933 C 11.299 26.826 11.301 26.72 11.302 26.61 C 11.37 23.313 11.608 20.338 13.285 17.444 C 13.64 16.645 13.42 16.212 13.154 15.416 C 12.973 12.521 13.631 10.507 15.487 8.254 C 17.758 5.814 20.988 4.446 24.303 4.249 C 25.046 4.227 25.786 4.241 26.527 4.272 C 26.257 4.877 25.908 5.311 25.483 5.816 C 24.584 7.023 24.183 8.345 23.717 9.764 C 23.287 11.063 22.843 12.235 22.07 13.373 C 21.989 13.493 21.908 13.612 21.826 13.736 C 20.597 15.345 18.233 16.688 16.245 17 C 15.709 17.046 15.178 17.078 14.641 17.088 C 13.553 19.59 12.977 21.778 12.865 24.506 C 12.857 24.686 12.848 24.866 12.84 25.052 C 12.821 25.493 12.801 25.934 12.783 26.375 C 12.906 26.375 13.028 26.375 13.154 26.375 C 13.166 26.198 13.177 26.023 13.19 25.841 C 13.487 23.869 14.847 22.238 16.362 21.022 C 18.394 19.608 20.168 19.197 22.626 19.317 C 23.095 19.402 23.481 19.519 23.927 19.689 C 23.811 20.341 23.551 20.748 23.161 21.279 C 22.688 21.936 22.241 22.599 21.815 23.287 C 19.967 26.186 18.239 27.906 14.826 28.789 C 14.209 28.872 13.591 28.929 12.969 28.976 C 13.005 29.079 13.042 29.183 13.08 29.29 C 13.247 29.769 13.416 30.249 13.584 30.728 C 13.641 30.891 13.698 31.054 13.757 31.223 C 14.123 32.266 14.48 33.312 14.826 34.362 C 14.949 34.362 15.071 34.362 15.197 34.362 C 15.216 34.2 15.235 34.04 15.255 33.873 C 15.568 32.345 16.565 30.932 17.777 29.965 C 18.429 29.554 19.095 29.336 19.841 29.161 C 20.013 29.12 20.186 29.077 20.364 29.033 C 21.303 28.942 22.241 28.961 23.184 28.976 C 22.815 31.183 21.952 32.801 20.245 34.26 C 19.841 34.548 19.841 34.548 19.469 34.548 C 19.408 34.731 19.347 34.914 19.283 35.105 C 18.055 35.545 16.862 35.516 15.568 35.476 C 15.943 36.169 16.306 36.796 16.823 37.392 C 17.24 37.892 17.24 37.892 17.24 38.262 C 17.942 37.875 18.605 37.484 19.249 37.008 C 19.841 36.59 19.841 36.59 20.213 36.59 C 20.256 36.459 20.299 36.327 20.344 36.191 C 21.036 34.662 22.382 33.473 23.927 32.876 C 25.4 32.385 27.31 32.51 28.706 33.177 C 30.672 34.367 31.63 35.977 32.217 38.176 C 32.49 39.295 32.678 40.417 32.834 41.557 C 32.865 41.779 32.896 41.998 32.927 42.226 C 32.986 42.662 33.04 43.097 33.092 43.533 C 33.291 45.052 33.64 46.71 34.886 47.734 C 35.527 47.731 35.757 47.607 36.21 47.15 C 36.332 46.987 36.455 46.823 36.58 46.655 C 36.704 46.494 36.827 46.331 36.953 46.165 C 37.068 46.008 37.183 45.852 37.3 45.691 C 37.393 45.58 37.486 45.469 37.582 45.353 C 38.567 43.908 38.517 41.826 38.6 40.143 C 38.941 34.585 40.016 29.366 42.227 24.231 C 42.516 23.557 42.771 22.873 43.023 22.185 C 43.376 21.23 43.749 20.294 44.162 19.364 C 44.626 18.295 45.031 17.213 45.415 16.112 C 45.468 15.962 45.521 15.811 45.575 15.654 C 46.288 13.603 46.288 13.603 46.784 11.492 C 46.889 10.935 47.006 10.392 47.157 9.844 C 47.346 9.113 47.413 8.386 47.47 7.634 C 47.516 7.244 47.516 7.244 47.701 6.872 C 48.108 6.814 48.108 6.814 48.631 6.872 C 49.196 7.348 49.51 7.653 49.745 8.358 C 49.8 9.321 49.8 10.285 49.803 11.248 C 49.804 11.388 49.804 11.526 49.805 11.669 C 49.81 13.588 49.7 15.368 49.164 17.224 C 49.018 17.772 48.968 18.198 49.002 18.76 C 49.067 18.594 49.133 18.426 49.2 18.254 C 49.808 16.715 50.447 15.193 51.117 13.681 C 51.316 13.229 51.509 12.773 51.695 12.316 C 51.95 11.754 52.199 11.343 52.601 10.878 C 52.705 10.751 52.81 10.625 52.918 10.495 C 53.274 10.215 53.274 10.215 53.761 10.161 C 54.202 10.215 54.202 10.215 54.515 10.437 C 55.129 11.281 55.203 12.135 55.2 13.153 C 55.202 13.29 55.202 13.427 55.202 13.568 C 55.178 14.842 54.906 16.001 54.551 17.219 C 54.356 17.845 54.356 17.845 54.388 18.574 C 54.429 18.477 54.47 18.38 54.511 18.28 C 55.137 16.826 55.821 15.366 56.803 14.116 C 57.11 14.178 57.416 14.238 57.732 14.302 C 58.319 16.062 56.929 19.502 56.803 19.502 C 56.742 19.748 56.68 19.993 56.617 20.246 C 56.786 20.123 56.954 20 57.128 19.875 C 57.732 19.502 57.732 19.502 58.475 19.502 C 58.475 20.3 58.475 21.096 58.475 21.918 C 58.751 21.458 58.751 21.458 59.033 20.989 C 59.277 21.049 59.522 21.111 59.774 21.174 C 59.836 21.42 59.897 21.664 59.96 21.918 C 60.206 21.918 60.451 21.918 60.703 21.918 C 60.777 21.748 60.777 21.748 60.853 21.576 C 61.085 21.156 61.272 20.971 61.657 20.693 C 61.774 20.605 62.204 20.293 62.398 20.153 C 62.669 19.954 63.486 19.357 63.629 19.253 C 64.034 18.955 64.434 18.653 64.833 18.35 C 66.935 16.749 70.493 14.317 71.662 13.373 C 71.788 13.272 73.456 11.928 73.579 11.828 C 77.335 8.773 81.159 5.371 84.051 1.477 C 85.2 0 85.2 0 85.964 0 Z" style="fill: #fffaf6;"></path>
</svg>
