<?xml version="1.0" encoding="utf-8"?>
<svg viewBox="0 0 24 24" xmlns="http://www.w3.org/2000/svg">
  <ellipse style="fill: #f26610;" cx="12" cy="12" rx="12" ry="12"/>
  <path d="M 12.874 9.57 L 12.874 8.802 C 12.104 7.809 11.587 6.634 11.397 5.379 C 11.339 5.009 10.877 4.865 10.637 5.152 C 10.059 5.833 9.605 6.632 9.299 7.517 C 10.234 8.565 11.486 9.284 12.874 9.57 Z M 15.937 6.749 C 14.729 6.749 13.751 7.731 13.751 8.939 L 13.751 10.563 C 10.895 10.394 8.474 8.636 7.379 6.142 C 7.229 5.8 6.746 5.78 6.585 6.117 C 6.131 7.077 5.876 8.149 5.876 9.28 C 5.876 11.217 6.808 13.025 8.203 14.364 C 8.562 14.711 8.915 14.998 9.266 15.261 L 5.331 16.245 C 5.038 16.318 4.907 16.658 5.072 16.912 C 5.547 17.648 6.723 18.895 9.261 18.999 C 9.48 19.007 9.698 18.928 9.864 18.783 L 11.648 17.249 L 13.751 17.249 C 16.167 17.249 18.125 15.293 18.125 12.876 L 18.125 8.499 L 19 6.749 L 15.937 6.749 Z M 15.937 9.391 C 15.697 9.391 15.458 9.175 15.458 8.935 C 15.458 8.695 15.697 8.483 15.937 8.483 C 16.177 8.483 16.399 8.703 16.399 8.943 C 16.399 9.183 16.177 9.391 15.937 9.391 Z" style="fill: #fffaf6;"/>
</svg>
