<?xml version="1.0" encoding="utf-8"?>
<svg viewBox="0 0 310 180" xmlns="http://www.w3.org/2000/svg">
  <defs/>
  <g transform="matrix(1, 0, 0, 1, -253.876495, 0)">
    <path d="M 278.049 146.789 L 278.049 127.527 L 287.141 117.972 L 304.4 146.789 L 331.83 146.789 L 303.784 100.251 L 332.755 69.739 L 303.013 69.739 L 278.049 97.477 L 278.049 30.598 L 254.318 30.598 L 254.318 146.789 L 278.049 146.789 Z M 354.169 57.719 C 361.565 57.719 367.575 51.709 367.575 44.158 C 367.575 36.608 361.565 30.752 354.169 30.752 C 346.618 30.752 340.608 36.608 340.608 44.158 C 340.608 51.709 346.618 57.719 354.169 57.719 Z M 342.457 146.789 L 366.188 146.789 L 366.188 69.739 L 342.457 69.739 L 342.457 146.789 Z M 406.407 146.789 L 407.64 136.927 C 411.801 144.015 421.047 148.792 431.834 148.792 C 453.716 148.792 468.972 132.92 468.972 109.035 C 468.972 83.916 455.257 67.119 433.683 67.119 C 422.588 67.119 412.417 71.742 407.794 78.677 L 407.794 30.598 L 384.063 30.598 L 384.063 146.789 L 406.407 146.789 Z M 407.948 107.802 C 407.948 96.244 415.653 88.539 426.749 88.539 C 437.998 88.539 445.087 96.398 445.087 107.802 C 445.087 119.205 437.998 127.064 426.749 127.064 C 415.653 127.064 407.948 119.359 407.948 107.802 Z M 498.713 56.332 L 543.402 56.332 L 543.402 40.306 L 498.713 40.306 L 498.713 56.332 Z M 478.526 108.11 C 478.526 132.458 496.402 148.638 521.058 148.638 C 545.56 148.638 563.435 132.458 563.435 108.11 C 563.435 83.762 545.56 67.428 521.058 67.428 C 496.402 67.428 478.526 83.762 478.526 108.11 Z M 502.412 107.956 C 502.412 96.398 509.963 88.693 521.058 88.693 C 531.999 88.693 539.55 96.398 539.55 107.956 C 539.55 119.667 531.999 127.372 521.058 127.372 C 509.963 127.372 502.412 119.667 502.412 107.956 Z" style="fill: rgb(16, 16, 14);"/>
  </g>
</svg>