<?xml version="1.0" encoding="utf-8"?>
<svg viewBox="0 0 500 180" xmlns="http://www.w3.org/2000/svg">
  <defs/>
  <g transform="matrix(1, 0, 0, 1, -252.158997, 0)">
    <path d="M 278.049 146.789 L 278.049 127.527 L 287.141 117.972 L 304.4 146.789 L 331.83 146.789 L 303.784 100.251 L 332.755 69.739 L 303.013 69.739 L 278.049 97.477 L 278.049 30.598 L 254.318 30.598 L 254.318 146.789 L 278.049 146.789 Z M 354.169 57.719 C 361.565 57.719 367.575 51.709 367.575 44.158 C 367.575 36.608 361.565 30.752 354.169 30.752 C 346.618 30.752 340.608 36.608 340.608 44.158 C 340.608 51.709 346.618 57.719 354.169 57.719 Z M 342.457 146.789 L 366.188 146.789 L 366.188 69.739 L 342.457 69.739 L 342.457 146.789 Z M 406.407 146.789 L 407.64 136.927 C 411.801 144.015 421.047 148.792 431.834 148.792 C 453.716 148.792 468.972 132.92 468.972 109.035 C 468.972 83.916 455.257 67.119 433.683 67.119 C 422.588 67.119 412.417 71.742 407.794 78.677 L 407.794 30.598 L 384.063 30.598 L 384.063 146.789 L 406.407 146.789 Z M 407.948 107.802 C 407.948 96.244 415.653 88.539 426.749 88.539 C 437.998 88.539 445.087 96.398 445.087 107.802 C 445.087 119.205 437.998 127.064 426.749 127.064 C 415.653 127.064 407.948 119.359 407.948 107.802 Z M 498.713 56.332 L 543.402 56.332 L 543.402 40.306 L 498.713 40.306 L 498.713 56.332 Z M 478.526 108.11 C 478.526 132.458 496.402 148.638 521.058 148.638 C 545.56 148.638 563.435 132.458 563.435 108.11 C 563.435 83.762 545.56 67.428 521.058 67.428 C 496.402 67.428 478.526 83.762 478.526 108.11 Z M 502.412 107.956 C 502.412 96.398 509.963 88.693 521.058 88.693 C 531.999 88.693 539.55 96.398 539.55 107.956 C 539.55 119.667 531.999 127.372 521.058 127.372 C 509.963 127.372 502.412 119.667 502.412 107.956 Z" style="fill: #fffaf6;"/>
    <path d="M 589.19 97.802 L 589.19 106.23 L 610.948 106.23 C 605.1 112.938 597.446 119.044 587.986 124.376 L 593.404 131.514 C 597.532 128.934 601.488 126.268 605.186 123.43 L 605.186 146.048 L 614.13 146.048 L 614.13 123.43 L 626.944 123.43 L 626.944 149.402 L 635.974 149.402 L 635.974 123.43 L 649.82 123.43 L 649.82 134.008 C 649.82 136.072 649.046 137.104 647.498 137.104 L 640.36 136.674 L 642.768 145.188 L 650.422 145.188 C 655.926 145.188 658.678 142.092 658.678 135.986 L 658.678 115.174 L 635.974 115.174 L 635.974 108.638 L 626.944 108.638 L 626.944 115.174 L 614.388 115.174 C 617.054 112.336 619.548 109.326 621.784 106.23 L 665.128 106.23 L 665.128 97.802 L 626.858 97.802 C 627.89 95.824 628.836 93.76 629.696 91.61 L 620.838 90.492 C 619.806 92.9 618.516 95.394 617.14 97.802 L 589.19 97.802 Z M 648.1 68.734 C 642.338 72.088 636.232 75.098 629.868 77.678 C 621.612 75.012 612.926 72.518 603.896 70.282 L 599.252 77.248 C 605.272 78.624 611.206 80.258 617.226 82.15 C 610.088 84.386 602.606 86.106 594.78 87.482 L 599.596 95.308 C 612.324 92.04 622.472 89.116 630.04 86.364 C 638.124 89.116 646.122 92.298 654.034 95.824 L 658.936 88.428 C 653.26 86.02 647.412 83.698 641.392 81.548 C 646.208 79.226 651.11 76.56 655.926 73.55 L 648.1 68.734 Z M 675.438 77.85 L 675.438 85.848 L 682.404 85.848 L 682.404 98.92 C 682.404 101.5 681.114 103.22 678.62 104.166 L 680.684 110.874 C 692.036 108.896 701.926 106.66 710.182 104.08 L 708.634 96.426 C 703.474 98.146 697.454 99.608 690.574 100.984 L 690.574 85.848 L 712.332 85.848 L 712.332 77.85 L 698.916 77.85 C 698.4 74.668 697.884 71.744 697.368 69.164 L 688.338 70.712 C 688.94 72.862 689.542 75.27 690.144 77.85 L 675.438 77.85 Z M 724.028 89.632 L 739.25 89.632 L 739.25 93.502 L 723.856 93.502 C 723.942 92.47 724.028 91.352 724.028 90.32 L 724.028 89.632 Z M 739.25 83.096 L 724.028 83.096 L 724.028 79.226 L 739.25 79.226 L 739.25 83.096 Z M 722.652 100.038 L 739.25 100.038 L 739.25 100.898 C 739.25 103.048 738.218 104.166 736.24 104.166 C 733.918 104.166 731.424 103.994 728.758 103.822 L 730.822 111.562 L 738.734 111.562 C 744.582 111.562 747.506 108.982 747.506 103.908 L 747.506 72.002 L 715.6 72.002 L 715.6 90.922 C 715.428 97.286 713.192 102.532 708.892 106.746 L 715.342 112.594 C 718.782 109.068 721.276 104.854 722.652 100.038 Z M 708.462 121.452 L 708.462 126.784 L 683.608 126.784 L 683.608 134.352 L 708.462 134.352 L 708.462 139.598 L 675.524 139.598 L 675.524 147.51 L 750 147.51 L 750 139.598 L 717.062 139.598 L 717.062 134.352 L 742.174 134.352 L 742.174 126.784 L 717.062 126.784 L 717.062 121.452 L 746.216 121.452 L 746.216 113.712 L 679.308 113.712 L 679.308 121.452 L 708.462 121.452 Z" style="fill: #867e7b;"/>
  </g>
</svg>
