<?xml version="1.0" encoding="utf-8"?>
<svg viewBox="0 0 20 20" xmlns="http://www.w3.org/2000/svg">
  <path d="M 10.874 7.57 L 10.874 6.802 C 10.104 5.809 9.587 4.634 9.397 3.379 C 9.339 3.009 8.877 2.865 8.637 3.152 C 8.059 3.833 7.605 4.632 7.299 5.517 C 8.234 6.565 9.486 7.284 10.874 7.57 Z M 13.937 4.749 C 12.729 4.749 11.751 5.731 11.751 6.939 L 11.751 8.563 C 8.895 8.394 6.474 6.636 5.379 4.142 C 5.229 3.8 4.746 3.78 4.585 4.117 C 4.131 5.077 3.876 6.149 3.876 7.28 C 3.876 9.217 4.808 11.025 6.203 12.364 C 6.562 12.711 6.915 12.998 7.266 13.261 L 3.331 14.245 C 3.038 14.318 2.907 14.658 3.072 14.912 C 3.547 15.648 4.723 16.895 7.261 16.999 C 7.48 17.007 7.698 16.928 7.864 16.783 L 9.648 15.249 L 11.751 15.249 C 14.167 15.249 16.125 13.293 16.125 10.876 L 16.125 6.499 L 17 4.749 L 13.937 4.749 Z M 13.937 7.391 C 13.697 7.391 13.458 7.175 13.458 6.935 C 13.458 6.695 13.697 6.483 13.937 6.483 C 14.177 6.483 14.399 6.703 14.399 6.943 C 14.399 7.183 14.177 7.391 13.937 7.391 Z" style="fill: #12100f;"></path>
</svg>
